<svg width="69" height="80" viewBox="0 0 69 80" fill="none" xmlns="http://www.w3.org/2000/svg">
<path fill-rule="evenodd" clip-rule="evenodd" d="M34.5019 -0.00012207C38.1041 -0.00012207 41.1643 4.74597 43.2045 12.4152C43.9122 15.078 44.5179 18.1184 44.996 21.4452C48.0563 20.2082 50.938 19.2251 53.5456 18.5155C61.0624 16.4843 66.6155 16.8228 68.4198 20.0064C70.2177 23.19 67.7248 28.2681 62.2419 33.8996C60.342 35.8527 58.0659 37.91 55.4774 39.9999C56.5103 40.8332 57.4985 41.6665 58.4293 42.4869C57.5813 43.0923 56.8864 43.8931 56.4019 44.8306C55.3308 43.8866 54.1832 42.9296 52.9718 41.9595C52.7232 42.1483 52.4682 42.3371 52.2131 42.5324C51.6648 46.5624 49.8287 50.1691 47.1446 52.91L46.9916 53.0533C46.5198 53.522 46.0289 53.9647 45.5124 54.3749C45.4806 54.7004 45.4423 55.0259 45.4041 55.3514C48.611 56.6796 51.6202 57.7212 54.3234 58.4504C60.4503 60.104 64.7411 60.2277 65.7612 58.4309C66.3031 57.4738 65.9206 55.9699 64.7793 54.0819C65.7038 53.6718 66.5199 53.0468 67.1702 52.272C69.0127 55.3514 69.5291 58.0272 68.4198 59.9869C66.6219 63.177 61.0751 63.5155 53.552 61.4843C50.9444 60.7811 48.0627 59.7915 44.996 58.5546C44.5179 61.8814 43.9122 64.9218 43.2045 67.5845C41.1643 75.2538 38.1041 79.9999 34.5019 79.9999C30.8997 79.9999 27.8394 75.2538 25.7992 67.5845C25.0916 64.9218 24.4859 61.8814 24.0077 58.5546C22.8984 59.0038 21.8145 59.4205 20.7626 59.7981C20.6797 58.7108 20.3418 57.7017 19.8126 56.8228C21.0367 56.3801 22.2991 55.8918 23.5997 55.3514C23.5614 55.0324 23.5296 54.7069 23.4913 54.3814C22.9239 53.9257 22.382 53.4374 21.8719 52.9165L21.8592 52.9035C19.1751 50.1626 17.3389 46.5559 16.7906 42.5259C16.5356 42.3371 16.2806 42.1418 16.0319 41.953C13.2968 44.1275 10.906 46.2694 8.93593 48.2942C4.4603 52.9035 2.20973 56.6405 3.22981 58.4439C3.79724 59.4465 5.37837 59.8501 7.72457 59.7264C7.70545 59.9218 7.69907 60.1236 7.69907 60.3254C7.69907 61.1783 7.85846 61.9921 8.13899 62.7408C4.39654 62.91 1.72519 62.0376 0.577587 60.0064C-1.22032 56.8163 1.27252 51.7382 6.75549 46.1067C8.66178 44.1535 10.9315 42.0962 13.5199 40.0064C10.9378 37.9165 8.66178 35.8593 6.75549 33.9061C1.27252 28.2746 -1.22032 23.1965 0.577587 20.0129C2.38187 16.8293 7.92859 16.4908 15.4517 18.522C18.0593 19.2251 20.9411 20.2082 24.0077 21.4517C24.1799 20.2473 24.3711 19.0819 24.5751 17.9621C25.4613 18.4178 26.4559 18.6718 27.5143 18.6718H27.5717C27.3358 19.9543 27.1254 21.302 26.9341 22.6952C27.221 22.8189 27.5015 22.9491 27.7884 23.0793C29.8605 22.2199 32.1238 21.7447 34.4955 21.7447C36.8672 21.7447 39.1369 22.2199 41.2089 23.0728C41.4895 22.9426 41.7764 22.8189 42.0569 22.6952C41.5787 19.1861 40.9603 16.0025 40.2271 13.2486C38.5695 7.0116 36.5293 3.15092 34.4955 3.15092C33.367 3.15092 32.2322 4.34233 31.1675 6.46472C30.345 5.89832 29.3951 5.5142 28.3622 5.37748C30.1027 1.94649 32.1875 -0.00012207 34.5019 -0.00012207ZM34.5019 29.427C39.003 29.427 42.6562 31.1718 42.6562 33.3202C42.6562 35.4751 39.003 37.2134 34.5019 37.2134C30.0007 37.2134 26.3475 35.4686 26.3475 33.3202C26.3475 31.1718 30.0007 29.427 34.5019 29.427ZM26.3475 44.0363V47.0246C27.8012 52.285 42.127 51.2694 42.6562 46.7577V43.7694C41.9421 48.7238 27.4951 49.0819 26.3475 44.0363ZM26.3093 35.1952V38.1184C27.7629 43.2551 42.1717 42.565 42.7008 38.1574V35.2408C41.9804 40.078 27.4569 40.1236 26.3093 35.1952ZM26.3093 39.4986V42.4869C27.7629 47.7473 42.1717 47.0376 42.7008 42.5259V39.5376C41.9804 44.4921 27.4569 44.5441 26.3093 39.4986ZM34.5019 24.3553C42.9622 24.3553 49.8223 31.3606 49.8223 39.9999C49.8223 48.6392 42.9622 55.6444 34.5019 55.6444C26.0415 55.6444 19.1814 48.6392 19.1814 39.9999C19.1814 31.3606 26.0415 24.3553 34.5019 24.3553ZM45.5124 25.6119C46.0862 26.0676 46.6345 26.5624 47.1446 27.0897C49.8287 29.8306 51.6648 33.4439 52.2131 37.4738C52.4682 37.6626 52.7232 37.8514 52.9718 38.0468C55.7069 35.8723 58.0978 33.7303 60.0678 31.7056C64.5307 27.1158 66.7813 23.3788 65.7676 21.5754C64.7475 19.7785 60.4567 19.9022 54.3298 21.5559C51.6266 22.285 48.6173 23.3267 45.4104 24.6613C45.4423 24.9673 45.4806 25.2928 45.5124 25.6119ZM41.1898 56.94C39.1241 57.7928 36.8672 58.2616 34.5082 58.2616C32.1429 58.2616 29.886 57.7928 27.8203 56.9335C27.527 57.0637 27.2337 57.2004 26.9405 57.3241C27.4186 60.8332 28.0371 64.0168 28.7703 66.7707C30.4279 73.0077 32.4681 76.8684 34.5082 76.8684C36.542 76.8684 38.5886 73.0077 40.2399 66.7707C40.9667 64.0168 41.5851 60.8267 42.0633 57.3241C41.77 57.2004 41.4767 57.0702 41.1898 56.94ZM16.797 37.4608C17.3453 33.4374 19.1814 29.8241 21.8655 27.0897L22.0186 26.9465C22.484 26.4843 22.9749 26.0415 23.4849 25.6314C23.5168 25.3059 23.5551 24.9803 23.5933 24.6548C20.38 23.3267 17.3772 22.285 14.6739 21.5494C8.54702 19.8957 4.25628 19.772 3.23619 21.5689C2.20973 23.3723 4.46029 27.1093 8.92955 31.6991C10.8996 33.7238 13.2904 35.8658 16.0255 38.0402C16.2806 37.8449 16.5356 37.6561 16.797 37.4608ZM61.7127 43.4569C64.0525 43.4569 65.9524 45.397 65.9524 47.7863C65.9524 50.1757 64.0525 52.1158 61.7127 52.1158C59.3729 52.1158 57.473 50.1757 57.473 47.7863C57.473 45.397 59.3665 43.4569 61.7127 43.4569ZM14.2468 55.8593C16.5866 55.8593 18.4865 57.7994 18.4865 60.1887C18.4865 62.578 16.5866 64.5181 14.2468 64.5181C11.9069 64.5181 10.007 62.578 10.007 60.1887C10.007 57.7994 11.9069 55.8593 14.2468 55.8593ZM27.5079 7.65613C29.8477 7.65613 31.7476 9.59623 31.7476 11.9856C31.7476 14.3749 29.8477 16.315 27.5079 16.315C25.1681 16.315 23.2682 14.3749 23.2682 11.9856C23.2682 9.59623 25.1681 7.65613 27.5079 7.65613Z" fill="white" fill-opacity="0.5"/>
</svg>
