<svg width="82" height="60" viewBox="0 0 82 60" fill="none" xmlns="http://www.w3.org/2000/svg">
<g clip-path="url(#clip0_33_387)">
<path fill-rule="evenodd" clip-rule="evenodd" d="M5.55102 0H76.449C79.5016 0 82 2.4616 82 5.46918V54.5308C82 57.5384 79.5016 60 76.449 60H5.55102C2.49844 60 0 57.5384 0 54.5308V5.46918C0 2.4616 2.49844 0 5.55102 0ZM33.4054 41.7147C34.3279 42.51 34.4208 43.8939 33.6136 44.8028C32.8048 45.7117 31.4018 45.8048 30.4793 45.0079L22.0343 37.7193C21.1118 36.9225 21.0173 35.5402 21.8261 34.6297C21.895 34.5524 21.9686 34.4814 22.0455 34.4151L30.4793 27.1344C31.4018 26.3392 32.8048 26.4307 33.6136 27.3412C34.4208 28.2501 34.3279 29.6323 33.4054 30.4292L26.8678 36.072L33.4054 41.7147ZM51.5207 45.0079C50.5982 45.8048 49.1952 45.7117 48.3864 44.8028C47.5792 43.8939 47.6721 42.51 48.5946 41.7147L55.1322 36.072L48.5946 30.4292C47.6721 29.6323 47.5792 28.2501 48.3864 27.3412C49.1952 26.4307 50.5982 26.3392 51.5207 27.1344L59.9545 34.4151C60.0314 34.4814 60.105 34.5524 60.1739 34.6297C60.9827 35.5402 60.8882 36.9225 59.9657 37.7193L51.5207 45.0079ZM40.9584 25.3924C41.237 24.2137 42.435 23.4799 43.6314 23.7545C44.8277 24.029 45.5725 25.2093 45.2938 26.3881L40.4683 46.75C40.1896 47.9303 38.9916 48.664 37.7953 48.3894C36.5989 48.1149 35.8542 46.9346 36.1329 45.7558L40.9584 25.3924ZM3.52824 15.314V55.0642C3.52761 55.2631 3.5669 55.4601 3.64386 55.644C3.72082 55.8279 3.83393 55.995 3.97668 56.1356C4.11943 56.2762 4.289 56.3877 4.47563 56.4635C4.66226 56.5393 4.86227 56.5781 5.06414 56.5774H77.1633C77.3652 56.5781 77.5652 56.5393 77.7518 56.4635C77.9384 56.3877 78.108 56.2762 78.2507 56.1356C78.3935 55.995 78.5066 55.8279 78.5836 55.644C78.6605 55.4601 78.6998 55.2631 78.6992 55.0642V15.314H3.52824ZM71.1654 6.1477C72.6805 6.1477 73.9073 7.35799 73.9073 8.84915C73.9073 10.3419 72.6805 11.5506 71.1654 11.5506C69.652 11.5506 68.4236 10.3419 68.4236 8.84915C68.4236 7.35799 69.652 6.1477 71.1654 6.1477ZM52.5825 6.1477C54.0976 6.1477 55.3244 7.35799 55.3244 8.84915C55.3244 10.3419 54.0976 11.5506 52.5825 11.5506C51.069 11.5506 49.8422 10.3419 49.8422 8.84915C49.8422 7.35799 51.069 6.1477 52.5825 6.1477ZM61.8748 6.1477C63.3882 6.1477 64.6166 7.35799 64.6166 8.84915C64.6166 10.3419 63.3882 11.5506 61.8748 11.5506C60.3613 11.5506 59.1329 10.3419 59.1329 8.84915C59.1329 7.35799 60.3613 6.1477 61.8748 6.1477Z" fill="#EC4899"/>
</g>
<defs>
<clipPath id="clip0_33_387">
<rect width="82" height="60" fill="white"/>
</clipPath>
</defs>
</svg>
