<svg width="848" height="799" viewBox="0 0 848 799" fill="none" xmlns="http://www.w3.org/2000/svg">
<path d="M491.253 263.682C474.874 270.587 460.773 280.19 448.929 292.477C438.364 303.461 429.999 316.064 423.833 330.3C423.095 332.003 422.388 333.728 421.714 335.478C421.559 335.877 421.412 336.276 421.268 336.687C420.008 340.025 418.885 343.422 417.892 346.855L412.558 377.91V377.935L411.047 386.725L409.127 397.903C410.231 397.262 411.335 396.624 412.439 395.987C433.303 383.996 454.751 372.907 476.733 362.772L479.773 349.542L491.267 299.451L500.251 260.31C497.191 261.314 494.193 262.451 491.253 263.682ZM425.267 449.15C431.272 462.094 439.161 473.672 448.929 483.876L449.148 482.911L461.613 428.614C449.293 435.133 437.172 441.982 425.267 449.15ZM379.66 354.517L353.557 257.479H309.164L260.733 438.313L229.673 257.479H162.01L213.148 481.674L221.389 517.809H251.031C268.011 501.307 285.713 485.546 304.085 470.571L323.587 390.405L331.456 358.055L337.087 381.198L350.312 435.56C364.477 425.608 378.977 416.094 393.789 407.045L379.66 354.517Z" fill="white"/>
<path d="M597.629 372.843C579.461 378.29 561.58 384.401 544.014 391.148V417.816H610.299C610.111 419.912 609.816 421.958 609.42 423.955C608.427 428.966 606.782 433.655 604.48 438.022C601.251 444.142 596.847 449.439 591.261 453.9C585.672 458.373 579.054 461.784 571.434 464.155C563.801 466.526 555.322 467.71 545.986 467.71C535.341 467.71 525.569 465.63 516.69 461.495C516.028 461.185 515.373 460.866 514.724 460.539C506.675 456.479 499.674 451.052 493.708 444.239C487.462 437.09 482.594 428.891 479.127 419.632C473.246 422.552 467.408 425.547 461.614 428.614C449.293 435.133 437.172 441.982 425.267 449.15C431.272 462.094 439.161 473.672 448.93 483.876C449.401 484.361 449.873 484.844 450.358 485.329C452.411 487.406 454.53 489.405 456.715 491.319C466.806 500.173 478.317 507.322 491.253 512.768C498.237 515.715 505.565 518.031 513.234 519.714C523.539 521.988 534.456 523.119 545.986 523.119C565.449 523.119 583.203 519.695 599.243 512.862C615.294 506.032 629.094 496.502 640.671 484.264C646.185 478.441 651.091 472.171 655.396 465.455C660.131 458.068 664.133 450.143 667.401 441.674C671.617 430.754 674.415 419.26 675.785 407.198C676.446 401.399 676.776 395.471 676.776 389.409V372.843H597.629ZM645.012 292.283C638.699 285.256 631.005 278.776 621.935 272.861C616.124 269.076 609.595 265.768 602.353 262.953C598.286 261.367 593.995 259.942 589.483 258.666C576.926 255.111 562.423 253.331 545.986 253.331C529.549 253.331 515.143 255.522 501.51 259.897C501.086 260.03 500.675 260.163 500.251 260.31C497.192 261.314 494.193 262.451 491.253 263.682C474.875 270.587 460.773 280.19 448.93 292.477C438.365 303.461 429.999 316.064 423.834 330.3C423.096 332.003 422.388 333.728 421.714 335.478C421.559 335.877 421.412 336.276 421.268 336.687C420.009 340.025 418.885 343.422 417.892 346.855C415.013 356.807 413.235 367.159 412.559 377.91V377.935C412.353 381.259 412.245 384.62 412.245 388.031C412.245 388.405 412.245 388.782 412.256 389.143C412.27 391.442 412.331 393.724 412.439 395.987C433.303 383.996 454.752 372.907 476.733 362.772C476.861 362.711 476.988 362.653 477.119 362.594C477.629 360.834 478.197 359.089 478.819 357.365C479.484 355.526 480.208 353.713 480.985 351.96C484.25 344.509 488.507 337.835 493.708 331.923C500.157 324.63 507.812 318.873 516.69 314.666C525.569 310.457 535.341 308.352 545.986 308.352C561.238 308.352 573.504 311.45 582.782 317.628C584.507 318.779 586.165 319.966 587.755 321.191C609.83 314.73 632.3 309.184 655.116 304.598C652.118 300.552 648.748 296.448 645.012 292.283Z" fill="white"/>
</svg>
